# xmcd
#
# Track frame offsets:
#	150
#	10882
#	28055
#	40422
#	54947
#	81970
#	98555
#	112322
#	135382
#	150565
#	169110
#	187122
#	207305
#	253180
#
# Disc length: 3520 seconds
#
# Revision: 1
# Processed by: cddbd v1.5.1PL0 Copyright (c) Steve Scherf et al.
# Submitted via: CDex 1.50Beta5
#
DISCID=bc0dbe0e
DTITLE=財津和夫 - 14ENTRANCE/財津和夫ソロ・ベスト
DYEAR=1990
DGENRE=
TTITLE0=切手のないおくりもの
TTITLE1=一枚の絵
TTITLE2=根雪
TTITLE3=二人だけの夜
TTITLE4=酒の唄
TTITLE5=Blue Train
TTITLE6=もしそれが…
TTITLE7=光の輪
TTITLE8=逃避行
TTITLE9=まるで子供のように
TTITLE10=不思議なときめき
TTITLE11=WAKE UP
TTITLE12=I need you and You
TTITLE13=あなたはだれ
EXTD=
EXTT0=
EXTT1=
EXTT2=
EXTT3=
EXTT4=
EXTT5=
EXTT6=
EXTT7=
EXTT8=
EXTT9=
EXTT10=
EXTT11=
EXTT12=
EXTT13=
PLAYORDER=
